# xmcd
#
# Track frame offsets: 
#        150
#        26972
#        54495
#        78295
#        98735
#        121265
#        148505
#        172522
#        196677
#        221727
#
# Disc length: 3328 seconds
#
# Revision: 0
# Processed by: cddbd v1.5.2PL0 Copyright (c) Steve Scherf et al.
# Submitted via: ExactAudioCopy v1.0b3
#
DISCID=7c0cfe0a
DTITLE=Manh Quynh - Mat Dang Tinh yeu
DYEAR=1996
DGENRE=
TTITLE0=Con duong mang ten em
TTITLE1=Lo cuoc tinh sau
TTITLE2=Huong Lan - Neu dung dang do
TTITLE3=Hinh bong cu
TTITLE4=Tieng ca u hoai (Tieng ca do ve dau)
TTITLE5=Diep khuc thuong dau
TTITLE6=Huong Lan - Qua con me
TTITLE7=Mat dang tinh yeu
TTITLE8=Khung troi buon
TTITLE9=Ngay ay quen nhau
EXTD=
EXTT0=
EXTT1=
EXTT2=
EXTT3=
EXTT4=
EXTT5=
EXTT6=
EXTT7=
EXTT8=
EXTT9=
PLAYORDER=
